<?xml version="1.0" encoding="UTF-8" standalone="no"?>
<svg xmlns:rdf="http://www.w3.org/1999/02/22-rdf-syntax-ns#" xmlns="http://www.w3.org/2000/svg" xml:space="preserve" height="63.999" viewBox="0 0 38.324005 63.999447" width="38.324" version="1.1" y="0px" x="0px" xmlns:cc="http://creativecommons.org/ns#" xmlns:dc="http://purl.org/dc/elements/1.1/"><metadata><rdf:RDF><cc:Work rdf:about=""><dc:format>image/svg+xml</dc:format><dc:type rdf:resource="http://purl.org/dc/dcmitype/StillImage"/><dc:title/></cc:Work></rdf:RDF></metadata><g transform="translate(-376.84 -364)"><path d="m413.64 364.05-9.7157 0.005s-0.19684-0.0148-0.5509-0.0148c-1.9935 0-12.075 0.55388-14.818 11.364-0.0429 0.11993-0.96564 2.8258-0.98041 9.1187h-9.2166c-0.81747 0-1.481 0.66348-1.481 1.481v8.4923c0 0.81755 0.66356 1.481 1.481 1.481h10.08v30.5c0 0.81754 0.66348 1.4811 1.481 1.4811h11.542c0.81746 0 1.4811-0.66356 1.4811-1.4811v-30.47h10.112c0.81763 0 1.4811-0.66348 1.4811-1.481v-8.5233c0-0.81755-0.66348-1.481-1.4811-1.481h-10.092v-3.6449c0-2.4274 1.5404-5.0207 5.865-5.0207h4.8119c0.81747 0 1.481-0.66348 1.481-1.481v-8.8448c0-0.81746-0.66203-1.481-1.481-1.481zm-1.4811 8.8448h-3.3308c-6.0975 0-8.827 4.0092-8.827 7.9828v5.1259c0 0.81754 0.66348 1.481 1.4809 1.481h10.092v5.5613h-10.112c-0.81763 0-1.4811 0.66348-1.4811 1.481v30.469h-8.5796v-30.501c0-0.81754-0.66348-1.481-1.481-1.481h-10.08v-5.5302h9.2283c0.39836 0 0.77897-0.15996 1.0575-0.44428 0.27852-0.28433 0.43097-0.66792 0.42362-1.0664-0.13179-6.7358 0.79382-9.572 0.83829-9.7156 2.1844-8.5886 9.7273-9.2566 11.986-9.2566 0.20588 0 0.32879 0.006 0.4488 0.0104h8.3367v5.8827z" stroke="#000" stroke-width=".080705"/></g></svg>
